<svg xmlns="http://www.w3.org/2000/svg" width="110" height="112" style="shape-rendering:geometricPrecision;text-rendering:geometricPrecision;image-rendering:optimizeQuality;fill-rule:evenodd;clip-rule:evenodd"><path fill="#fefffe" d="M26.5 4.5q5.72.225 5 6h46q-.45-7.07 6-5 1.428 2.318 1 5 15.745-1.005 20.5 14 1 34 0 68-2.75 10.75-13.5 13.5-37 1-74 0Q6.75 103.25 4 92.5a1156 1156 0 0 1 0-68q4.717-14.99 20.5-14-.37-3.537 2-6m-8 13h6a32.4 32.4 0 0 0 .5 8q3.4 2.153 6-1 .745-3.465.5-7h46q-.245 3.535.5 7 2.6 3.153 6 1 .746-3.97.5-8 16.464.342 14 17h-88q-1.953-11.585 8-17m-8 24h88q.25 24.505-.5 49-1.25 7.25-8.5 8.5-35 1-70 0-7.25-1.25-8.5-8.5-.75-24.495-.5-49" style="opacity:.839"/><path fill="#fefffe" d="M52.5 49.5q3.334-.483 5.5 2 1.71 11.21 13 10 4.203.907 3 5a45 45 0 0 0-7.5 8.5 324 324 0 0 0 2 9.5q-1.862 3.966-6 2.5a42.6 42.6 0 0 0-8-3.5l-10 4q-2.294-.043-3.5-2 .001-5.273 1.5-10.5l-8-10q.39-1.892 2-3a79 79 0 0 1 10-2 163 163 0 0 1 6-10.5" style="opacity:.914"/></svg>