<svg xmlns="http://www.w3.org/2000/svg" width="120" height="120" style="shape-rendering:geometricPrecision;text-rendering:geometricPrecision;image-rendering:optimizeQuality;fill-rule:evenodd;clip-rule:evenodd"><path fill="#fefffe" d="M18.5 5.5q41.003-.25 82 .5 10.926 2.427 12.5 13.5 1 40.5 0 81-2.427 10.926-13.5 12.5a1600 1600 0 0 1-80 0Q8.478 111.364 6 100.5a1681 1681 0 0 1 0-82q2.523-10.27 12.5-13m1 5q40.003-.25 80 .5 6.25 2.25 8.5 8.5 1 24 0 48Q98.208 56.71 88.5 46q-4.555-2.775-9 0l-27 27q-8.075-1.553-14-8-5.293-3.08-10 1a350 350 0 0 1-17 14.5 621 621 0 0 1-.5-61q2.532-6.277 8.5-9m18 19q13.977.232 6 11.5-14.115.087-6-11.5m45 21a4.93 4.93 0 0 1 3 .5A58661 58661 0 0 1 108 75.5q1 11.5 0 23-1.75 7.75-9.5 9.5-39 1-78 0-7.103-1.602-9.5-8.5a30.5 30.5 0 0 1 0-11 155.5 155.5 0 0 1 23-19A57.6 57.6 0 0 1 44.5 77q6 5 12 0a968 968 0 0 0 26-26.5" style="opacity:.78"/><path fill="#fefffe" d="M35.5 24.5q18.923-2.333 15.5 16-8.762 10.86-20 2-4.72-11.074 4.5-18m2 5q-8.115 11.587 6 11.5 7.977-11.268-6-11.5" style="opacity:.773"/></svg>