<svg xmlns="http://www.w3.org/2000/svg" width="120" height="120" style="shape-rendering:geometricPrecision;text-rendering:geometricPrecision;image-rendering:optimizeQuality;fill-rule:evenodd;clip-rule:evenodd"><path fill="#fefffe" d="M84.5 27.5q0 1 1 1a71.4 71.4 0 0 0 12 11q0 1 1 1 0 1 1 1a316 316 0 0 0 15.5 14q2.658 7.35-5.5 5.5a1048 1048 0 0 0-50-44.5A1042 1042 0 0 0 9.5 61Q1.362 62.834 4 55.5A188082 188082 0 0 0 57.5 8q2.5-1 5 0a589 589 0 0 0 22 19.5" style="opacity:.82"/><path fill="#fefffe" d="M99.5 41.5q-1 0-1-1-1 0-1-1v-17h-6c1 5-1 7-6 6q-1 0-1-1a61 61 0 0 1 .5-11l1.5-1.5a50.8 50.8 0 0 1 17 .5 4.46 4.46 0 0 1 1.5 2 121 121 0 0 1 0 22q-2.166 2.483-5.5 2" style="opacity:.777"/><path fill="#fefffe" d="M18.5 55.5a5.58 5.58 0 0 1 3 1q1.5 23.979 1 48h74q-.25-23.505.5-47 3-2 6 0a702 702 0 0 1 0 53l-1.5 1.5q-42 1-84 0a9.5 9.5 0 0 1-1.5-2.5 676 676 0 0 1 0-52q1.492-.85 2.5-2" style="opacity:.817"/></svg>