<svg xmlns="http://www.w3.org/2000/svg" width="512" height="341"><path fill="#E32D3C" d="M0 0h512v341H0z"/><path fill="#FDFBFB" d="M280 193h232v148H280zM0 193h232v148H0zM280 0h232v148H280zM0 0h232v148H0z"/><path fill="#2D4997" d="M0 0h32L16 8v2c2.08 1.663 2.08 1.663 4.816 3.395l3.206 2.112 1.74 1.133c2.464 1.605 4.917 3.224 7.37 4.844q1.952 1.289 3.906 2.574c7.051 4.647 14.04 9.384 21.025 14.13l9.844 6.679a15245 15245 0 0 0 20.945 14.18 56628 56628 0 0 1 44.399 30.058q7.78 5.272 15.562 10.54l9.706 6.577a7238 7238 0 0 0 17.615 11.912q3.959 2.67 7.915 5.342 1.879 1.268 3.76 2.531 2.58 1.735 5.156 3.477l2.957 1.992L198 133v1c-13.78 2.004-23.615 1.053-35-7.375a396 396 0 0 1-8.5-6.647c-3.23-2.556-6.599-4.816-10.062-7.04q-1.768-1.166-3.532-2.336l-1.86-1.234c-7.104-4.749-14.14-9.6-21.196-14.421a17998 17998 0 0 0-16.394-11.185C90.311 76.164 79.156 68.582 68 61a43017 43017 0 0 1-36.75-25l-2.744-1.868a1118 1118 0 0 1-11.658-8.03l-1.843-1.29q-2.324-1.632-4.642-3.273C8.004 19.861 8.004 19.861 5 19c-.487 2.807-.487 2.807 0 6 1.945 1.882 3.563 3.138 5.813 4.563l1.879 1.263q2.045 1.373 4.104 2.722c3.088 2.034 6.127 4.136 9.172 6.233 2.427 1.67 4.86 3.33 7.294 4.989a3347 3347 0 0 1 12.926 8.855l3.945 2.715 1.946 1.34a4996 4996 0 0 0 5.663 3.886A3750 3750 0 0 1 81.125 77.75a2634 2634 0 0 0 25.597 17.6c7.652 5.207 15.254 10.484 22.842 15.784 4.637 3.236 9.285 6.453 13.967 9.624l2.638 1.788q2.443 1.653 4.894 3.294l2.199 1.488 1.905 1.278C157 130 157 130 161 134H0zM316 207c14.504-2.067 23.884-.248 35.668 8.535q2.775 2.13 5.521 4.292c4.696 3.63 9.606 6.942 14.498 10.298q2.898 2.017 5.793 4.04c4.988 3.472 9.999 6.91 15.02 10.335 6.966 4.75 13.896 9.551 20.813 14.375A2287 2287 0 0 0 436 274.5a2575 2575 0 0 1 25.59 17.65c8.352 5.82 16.75 11.573 25.158 17.31a4555 4555 0 0 1 13.531 9.291L505 322l3-4c-2.717-2.848-5.477-5.17-8.719-7.398l-2.793-1.93-2.988-2.047-6.281-4.336-3.18-2.19A2079 2079 0 0 1 471 291a6675 6675 0 0 0-21.5-15 10794 10794 0 0 1-33.938-23.709A9504 9504 0 0 0 386.5 232l-5.766-4.012a8608 8608 0 0 0-11.53-8.008l-5.454-3.792-2.545-1.76-2.346-1.635-2.047-1.421C355 210 355 210 352 207h160v134h-32l16-8c-2.85-3.03-5.76-5.306-9.25-7.562a735 735 0 0 1-14.5-9.75l-2.044-1.409-4.142-2.856q-5.029-3.465-10.064-6.923l-4-2.75-2-1.375-56-38.5-4.007-2.754-9.888-6.8q-10.792-7.425-21.605-14.821a6328 6328 0 0 1-19.62-13.457 1464 1464 0 0 0-10.396-7.102l-2.241-1.523a992 992 0 0 0-4.28-2.891c-4.85-3.302-4.85-3.302-5.963-5.527M480 0h32v134H350c2.829-2.829 4.882-4.749 8.105-6.855l2.44-1.609 2.642-1.724q2.865-1.89 5.727-3.78l3.028-2c5.068-3.367 10.094-6.793 15.12-10.22q3.174-2.16 6.348-4.324l3.258-2.22c5.182-3.529 10.37-7.046 15.558-10.565A24583 24583 0 0 0 440.5 71.5a19835 19835 0 0 1 30.004-20.375 3796 3796 0 0 0 15.927-10.842q3.484-2.388 6.972-4.772 2.437-1.67 4.868-3.345l2.952-2.018 2.586-1.775C506 27 506 27 509 26a637 637 0 0 0-2.312-4.812l-1.301-2.708c-1.277-2.283-2.541-3.678-4.387-5.48v-2c-5.42.426-9.19 3.533-13.523 6.527l-2.55 1.733c-2.773 1.885-5.537 3.781-8.302 5.677q-4.373 2.98-8.749 5.953l-5.987 4.074c-9.013 6.136-18.084 12.182-27.17 18.21-11.695 7.76-23.336 15.577-34.817 23.654-10.72 7.505-21.633 14.73-32.561 21.927-7.732 5.103-15.414 10.244-22.92 15.675a1280 1280 0 0 1-9.827 7.012 266 266 0 0 0-4.577 3.36C318.602 133.367 310.235 135.533 296 134v-2a143 143 0 0 1 7.125-4.5c6.015-3.578 11.726-7.496 17.4-11.588 5.653-4.067 11.422-7.943 17.233-11.782 3.251-2.149 6.497-4.308 9.742-6.466l2.08-1.383c8.188-5.45 16.336-10.958 24.483-16.469l2.346-1.587q5.934-4.013 11.866-8.028 10.375-7.019 20.754-14.03l6.837-4.62a31374 31374 0 0 1 30.18-20.37l10.207-6.882q5.757-3.88 11.503-7.775 2.293-1.554 4.59-3.102 3.383-2.286 6.76-4.582l2.069-1.392C484.63 5.234 484.63 5.234 487 2l-7-1zM0 207h162c-5.626 4.5-5.626 4.5-8.66 6.566l-2.11 1.44-2.292 1.556-2.473 1.685q-4.23 2.88-8.465 5.753l-3.223 2.189q-7.92 5.379-15.843 10.751-10.723 7.272-21.434 14.56-13.245 9.008-26.5 18A36795 36795 0 0 0 32 296l-17.12 11.645-2.997 2.039-2.644 1.798A811 811 0 0 1 4 315c.302 4.834 2.784 7.614 5.723 11.23C11 328 11 328 11 330c5.367-2.116 9.936-4.73 14.703-7.96l2.238-1.497q3.658-2.453 7.309-4.918l5.192-3.481A8112 8112 0 0 0 57 301l5.505-3.71q10.911-7.354 21.815-14.718a6008 6008 0 0 1 35.566-23.826c7.05-4.69 14.094-9.386 21.076-14.176a854 854 0 0 1 4.939-3.357 743 743 0 0 0 16.41-11.434c3.675-2.614 7.376-5.188 11.081-7.759a383 383 0 0 0 5.485-3.912c12.538-9.099 21.52-13.2 37.123-11.108-2.418 2.513-4.763 4.67-7.684 6.574l-2.25 1.482-2.504 1.631a5180 5180 0 0 0-5.714 3.774l-3.262 2.155c-7.061 4.683-14.068 9.448-21.086 14.196l-14.617 9.886q-10.541 7.129-21.087 14.25l-11.546 7.802-4.625 3.125-2.312 1.563-9.25 6.25-37.486 25.332-14.525 9.822A5031 5031 0 0 1 25 337c3.083 2.145 3.083 2.145 7 4H0z"/><path fill="#2B4896" d="M296 218c4.39 1.756 7.13 3.37 10.875 6.125q1.857 1.35 3.719 2.7l2.094 1.516c4.528 3.248 9.11 6.418 13.687 9.596l3.03 2.106q9.21 6.395 18.458 12.734c6.906 4.74 13.775 9.533 20.649 14.32A2792 2792 0 0 0 385 278.5c11.382 7.806 22.693 15.714 34.019 23.603 14.095 9.82 14.095 9.82 28.231 19.584l1.861 1.28c3.689 2.533 7.388 5.05 11.092 7.56l2.667 1.812q2.592 1.76 5.19 3.511l2.346 1.595 2.104 1.423L474 340v1H296zM216 219v122H37a257 257 0 0 1 11.563-8.75l1.878-1.34c4.607-3.267 9.28-6.422 13.993-9.535 4.74-3.142 9.431-6.357 14.129-9.562l2.888-1.972a20583 20583 0 0 0 20.37-13.93c10.653-7.291 21.323-14.557 31.99-21.827a16719 16719 0 0 0 35.729-24.4l5.084-3.48c10.365-7.094 20.75-14.156 31.189-21.142l2.751-1.847 2.518-1.68c.735-.49 1.47-.982 2.226-1.488C215 219 215 219 216 219M38 0h178v122c-4.157-1.663-6.607-3.008-10.074-5.633-5.781-4.293-11.726-8.283-17.738-12.242-7.288-4.826-14.518-9.699-21.597-14.826-4.334-3.136-8.76-6.109-13.224-9.057-4.173-2.766-8.3-5.6-12.43-8.43l-19.25-13.187-2.356-1.613c-11.674-7.986-23.364-15.947-35.054-23.91Q76.137 27.555 68 22l-2.29-1.563C58.436 15.469 51.189 10.465 44 5.375l-1.838-1.292A171 171 0 0 1 38 1zM296 0h178c-3.264 3.264-6.066 5.551-9.848 8.09l-1.71 1.153q-2.749 1.852-5.505 3.694-1.916 1.29-3.83 2.582-3.81 2.568-7.62 5.13c-4.47 3.01-8.919 6.052-13.362 9.101l-4.504 3.086-2.262 1.55c-4.387 3.002-8.78 5.995-13.171 8.989l-2.78 1.895-11.22 7.646A16540 16540 0 0 0 369.5 72.5c-11.426 7.822-22.87 15.618-34.312 23.416l-11.102 7.566a3432 3432 0 0 0-13.656 9.35l-2.675 1.84a2549 2549 0 0 0-5.031 3.47l-2.244 1.542-1.971 1.36C297 122 297 122 296 122z"/><path fill="#E33140" d="M316 207c14.504-2.067 23.884-.248 35.668 8.535q2.775 2.13 5.521 4.292c4.696 3.63 9.606 6.942 14.498 10.298q2.898 2.017 5.793 4.04c4.988 3.472 9.999 6.91 15.02 10.335 6.966 4.75 13.896 9.551 20.813 14.375A2287 2287 0 0 0 436 274.5a2575 2575 0 0 1 25.59 17.65c8.352 5.82 16.75 11.573 25.158 17.31a4555 4555 0 0 1 13.531 9.291L505 322c-.728 3.345-1.544 4.892-4.062 7.25l-1.66 1.578L498 332c-3.638-1.324-6.59-2.934-9.746-5.168l-2.754-1.935-2.937-2.084-6.22-4.368-3.195-2.245c-4.834-3.378-9.707-6.698-14.586-10.012l-5.472-3.723-2.614-1.778c-5.537-3.773-11.054-7.576-16.573-11.376q-4.95-3.409-9.903-6.811l-4-2.75-2-1.375-24-16.5-4.007-2.754-9.888-6.8q-10.792-7.425-21.605-14.821a6328 6328 0 0 1-19.62-13.457 1464 1464 0 0 0-10.396-7.102l-2.241-1.523a992 992 0 0 0-4.28-2.891c-4.85-3.302-4.85-3.302-5.963-5.527M14 9c18.22 11.397 35.893 23.652 53.675 35.713a20006 20006 0 0 0 21.186 14.34 58326 58326 0 0 1 44.39 30.052q7.78 5.272 15.562 10.54l9.706 6.577a7238 7238 0 0 0 17.615 11.912q3.959 2.67 7.915 5.342 1.879 1.268 3.76 2.531 2.58 1.735 5.156 3.477l2.957 1.992L198 133v1c-13.78 2.004-23.615 1.053-35-7.375a396 396 0 0 1-8.5-6.647c-3.23-2.556-6.599-4.816-10.062-7.04q-1.768-1.166-3.532-2.336l-1.86-1.234c-7.104-4.749-14.14-9.6-21.196-14.421a17998 17998 0 0 0-16.394-11.185C90.311 76.164 79.156 68.582 68 61l-12.687-8.625-3.126-2.125a8783 8783 0 0 1-15.12-10.3C26.75 32.903 16.415 25.894 6 19c2.257-3.938 4.694-6.873 8-10"/><path fill="#E33240" d="M487 3c4.993 1.277 7.576 3.173 11 7-7.56 6.25-15.714 11.581-23.887 16.98-4.345 2.872-8.682 5.755-13.02 8.637l-2.746 1.824c-10.108 6.719-20.166 13.513-30.222 20.309a6436 6436 0 0 1-38.937 26.125c-11.735 7.805-11.735 7.805-23.404 15.707a943 943 0 0 1-5.036 3.416 513 513 0 0 0-15.27 10.749 932 932 0 0 1-9.729 6.948 287 287 0 0 0-4.763 3.48C319.21 132.953 310.686 135.7 296 134v-2a143 143 0 0 1 7.125-4.5c6.015-3.578 11.726-7.496 17.4-11.588 5.653-4.067 11.422-7.943 17.233-11.782 3.251-2.149 6.497-4.308 9.742-6.466l2.08-1.383c8.188-5.45 16.336-10.958 24.483-16.469l2.346-1.587q5.934-4.013 11.866-8.028 10.375-7.019 20.754-14.03l6.837-4.62a31374 31374 0 0 1 30.18-20.37l10.207-6.882a3430 3430 0 0 0 22.852-15.522l2.07-1.417C484.227 5.352 484.227 5.352 487 3"/><path fill="#E33241" d="M216 207c-2.418 2.513-4.763 4.67-7.684 6.574l-2.25 1.482-2.504 1.631a5180 5180 0 0 0-5.714 3.774l-3.262 2.155c-7.061 4.683-14.068 9.448-21.086 14.196l-14.617 9.886q-10.541 7.129-21.087 14.25l-11.546 7.802-4.625 3.125-2.312 1.563-6.938 4.687-2.312 1.562L72.6 304.995C48.251 321.425 48.251 321.425 24 338c-8.631-3.854-8.631-3.854-11-8l2.516-1.52c8.763-5.356 17.31-11.008 25.797-16.793l1.738-1.184 7.52-5.127c9.185-6.26 18.401-12.473 27.617-18.688l2.788-1.882a7185 7185 0 0 1 38.907-26.058c7.051-4.69 14.096-9.387 21.08-14.178a854 854 0 0 1 4.938-3.357 743 743 0 0 0 16.41-11.434c3.675-2.614 7.376-5.188 11.081-7.759a383 383 0 0 0 5.485-3.912c12.538-9.099 21.52-13.2 37.123-11.108"/><path d="M511 309h1v32h-32c2.226-1.113 4.463-2.208 6.734-3.227 12.08-5.6 18.183-12.46 23.266-24.773a60 60 0 0 0 1-4M0 309a528 528 0 0 1 3.402 6.91l1.535 3.152 1.528 3.16c1.348 2.44 2.56 3.886 4.535 5.778v2l1.7.813c2.463 1.271 4.766 2.71 7.113 4.187 4.046 2.458 7.574 3.997 12.187 5v1H0zM480 0h32v32a528 528 0 0 1-3.402-6.91l-1.536-3.152-1.527-3.16c-1.348-2.44-2.56-3.886-4.535-5.778v-2l-1.7-.812c-2.463-1.272-4.766-2.71-7.113-4.188-4.046-2.458-7.574-3.997-12.187-5zM0 0h32a528 528 0 0 1-6.91 3.402l-3.152 1.535-3.16 1.528C16.337 7.813 14.891 9.025 13 11h-2l-.812 1.7C8.916 15.162 7.478 17.465 6 19.812 3.542 23.859 2.003 27.386 1 32H0z"/></svg>