<svg xmlns="http://www.w3.org/2000/svg" width="120" height="120" style="shape-rendering:geometricPrecision;text-rendering:geometricPrecision;image-rendering:optimizeQuality;fill-rule:evenodd;clip-rule:evenodd"><path fill="#fefffe" d="M50.5 1.5q53.53-2.688 66.5 49 3.396 53.583-48.5 66.5Q14.88 120.348 2 68.5q-3.057-53.642 48.5-67m-1 6q48.726-3.792 61.5 43 4.186 26.936-15 46Q97.74 75.194 78.5 67a361 361 0 0 0-38 0Q29.386 70.612 25 81.5a120 120 0 0 0-2 16q-23.562-25.263-12-58 11.794-25.05 38.5-32" style="opacity:.903"/><path fill="#fefffe" d="M54.5 16.5q22.78-1.12 25 21.5-2.572 23.573-26 20Q37.51 50.276 40 32.5q3.526-11.67 14.5-16" style="opacity:.939"/></svg>