<?xml version="1.0" encoding="UTF-8"?>
<!DOCTYPE svg PUBLIC "-//W3C//DTD SVG 1.1//EN" "http://www.w3.org/Graphics/SVG/1.1/DTD/svg11.dtd">
<svg xmlns="http://www.w3.org/2000/svg" version="1.1" width="120px" height="120px" style="shape-rendering:geometricPrecision; text-rendering:geometricPrecision; image-rendering:optimizeQuality; fill-rule:evenodd; clip-rule:evenodd" xmlns:xlink="http://www.w3.org/1999/xlink">
<g><path style="opacity:0.903" fill="#fefffe" d="M 50.5,1.5 C 86.1869,-0.292154 108.354,16.0412 117,50.5C 119.264,86.2216 103.097,108.388 68.5,117C 32.7528,119.232 10.5862,103.065 2,68.5C -0.0382429,32.7386 16.1284,10.4052 50.5,1.5 Z M 49.5,7.5 C 81.984,4.97241 102.484,19.3057 111,50.5C 113.791,68.4576 108.791,83.7909 96,96.5C 97.1607,82.2965 91.3274,72.4631 78.5,67C 65.8333,66.3333 53.1667,66.3333 40.5,67C 33.0908,69.4084 27.9241,74.2417 25,81.5C 23.974,86.7848 23.3073,92.1181 23,97.5C 7.29187,80.658 3.29187,61.3246 11,39.5C 18.8626,22.8001 31.6959,12.1335 49.5,7.5 Z"/></g>
<g><path style="opacity:0.939" fill="#fefffe" d="M 54.5,16.5 C 69.6874,15.7534 78.0208,22.9201 79.5,38C 77.7854,53.7154 69.1187,60.3821 53.5,58C 42.8405,52.851 38.3405,44.351 40,32.5C 42.3505,24.7199 47.1838,19.3866 54.5,16.5 Z"/></g>
</svg>
