<svg xmlns="http://www.w3.org/2000/svg" width="120" height="120" style="shape-rendering:geometricPrecision;text-rendering:geometricPrecision;image-rendering:optimizeQuality;fill-rule:evenodd;clip-rule:evenodd"><path fill="#fefffe" d="M55.5 5.5q43.912.186 56.5 42 6.536 49.195-40.5 64.5Q27.753 118.255 9 78.5-3.973 30.539 40.5 9q7.567-2.362 15-3.5m-6 5q45.82-3.89 58.5 40 3.846 45.08-39.5 57.5-44.258 3.755-57.5-38.5-4.478-45.227 38.5-59m5 21q2.385.192 4 2a243 243 0 0 0 9.5 16A243 243 0 0 0 64.5 61q.438 5.098 4 8.5 1.5-.5 2-2-2.025-2.931-2-6.5.585-5.41 4-9.5-2.403-4.257-1.5-9 3.888-2.223 7 1l6 10Q91.362 75.91 69.5 84 55.995 86.832 47 76.5l-12-20q-1.876-3.865-1-8 2.59-1.614 5.5-.5a44.7 44.7 0 0 1 5.5 9.5q1.665 2.305 4.5 2a131 131 0 0 0-11-21.5q1.98-4.809 7-3a261 261 0 0 1 10 16.5q1.238 1.329 3 1a8.43 8.43 0 0 0-.5-4A74.3 74.3 0 0 1 51.5 36q.085-3.314 3-4.5" style="opacity:.714"/><path fill="#fefffe" d="M51.5 28.5q4.725-.434 9 1.5A208 208 0 0 0 68 41.5q4.58-6.664 11.5-2 8.163 10.41 10 23.5-.89 17.391-17 24-17.902 5.086-29.5-9.5l-13-23q-1.878-8.742 6.5-12-3.405-9.695 6.5-12 2.843.173 5 2a19.6 19.6 0 0 0 3.5-4m3 3q-2.915 1.186-3 4.5A74.3 74.3 0 0 0 58 48.5a8.43 8.43 0 0 1 .5 4q-1.762.329-3-1a261 261 0 0 0-10-16.5q-5.02-1.809-7 3a131 131 0 0 1 11 21.5q-2.835.305-4.5-2a44.7 44.7 0 0 0-5.5-9.5q-2.91-1.114-5.5.5-.876 4.135 1 8l12 20q8.995 10.332 22.5 7.5Q91.362 75.91 84 53.5l-6-10q-3.112-3.223-7-1-.903 4.743 1.5 9-3.415 4.09-4 9.5-.025 3.569 2 6.5-.5 1.5-2 2-3.562-3.402-4-8.5A243 243 0 0 1 68 49.5a243 243 0 0 1-9.5-16q-1.615-1.808-4-2" style="opacity:.646"/><path fill="#fefffe" d="M77.5 28.5q9.875 1.413 12 11-4.452-.189-6-4.5l-6-3q-1.776-1.718 0-3.5M34.5 77.5a144 144 0 0 1 10.5 10q.725 1.422.5 3-8.25-2.74-12-11 .544-1.025 1-2" style="opacity:.575"/></svg>