<?xml version="1.0" encoding="UTF-8"?>
<!DOCTYPE svg PUBLIC "-//W3C//DTD SVG 1.1//EN" "http://www.w3.org/Graphics/SVG/1.1/DTD/svg11.dtd">
<svg xmlns="http://www.w3.org/2000/svg" version="1.1" width="120px" height="120px" style="shape-rendering:geometricPrecision; text-rendering:geometricPrecision; image-rendering:optimizeQuality; fill-rule:evenodd; clip-rule:evenodd" xmlns:xlink="http://www.w3.org/1999/xlink">
<g><path style="opacity:0.78" fill="#fefffe" d="M 18.5,5.5 C 45.8354,5.33336 73.1687,5.50002 100.5,6C 107.784,7.61765 111.951,12.1177 113,19.5C 113.667,46.5 113.667,73.5 113,100.5C 111.382,107.784 106.882,111.951 99.5,113C 72.8333,113.667 46.1667,113.667 19.5,113C 12.1515,111.909 7.6515,107.743 6,100.5C 5.33333,73.1667 5.33333,45.8333 6,18.5C 7.68235,11.6529 11.849,7.31958 18.5,5.5 Z M 19.5,10.5 C 46.1687,10.3334 72.8354,10.5 99.5,11C 103.667,12.5 106.5,15.3333 108,19.5C 108.667,35.5 108.667,51.5 108,67.5C 101.472,60.3075 94.9716,53.1409 88.5,46C 85.4632,44.1497 82.4632,44.1497 79.5,46C 70.5,55 61.5,64 52.5,73C 47.1172,71.9648 42.4506,69.2981 38.5,65C 34.971,62.9461 31.6376,63.2795 28.5,66C 22.9804,71.0207 17.3137,75.8541 11.5,80.5C 10.3336,60.1749 10.1669,39.8415 11,19.5C 12.6878,15.3148 15.5212,12.3148 19.5,10.5 Z M 37.5,29.5 C 46.8176,29.6546 48.8176,33.488 43.5,41C 34.0905,41.0578 32.0905,37.2245 37.5,29.5 Z M 82.5,50.5 C 83.552,50.3505 84.552,50.5172 85.5,51C 93.0282,59.1926 100.528,67.3593 108,75.5C 108.667,83.1667 108.667,90.8333 108,98.5C 106.833,103.667 103.667,106.833 98.5,108C 72.5,108.667 46.5,108.667 20.5,108C 15.7647,106.932 12.5981,104.099 11,99.5C 10.3333,95.8333 10.3333,92.1667 11,88.5C 18.0953,81.3982 25.7619,75.0649 34,69.5C 37.7677,71.5973 41.2677,74.0973 44.5,77C 48.5,80.3333 52.5,80.3333 56.5,77C 65.3963,68.2715 74.0629,59.4382 82.5,50.5 Z"/></g>
<g><path style="opacity:0.773" fill="#fefffe" d="M 35.5,24.5 C 48.1152,22.9448 53.2818,28.2782 51,40.5C 45.1587,47.7409 38.4921,48.4075 31,42.5C 27.8529,35.1172 29.3529,29.1172 35.5,24.5 Z M 37.5,29.5 C 32.0905,37.2245 34.0905,41.0578 43.5,41C 48.8176,33.488 46.8176,29.6546 37.5,29.5 Z"/></g>
</svg>
