<svg xmlns="http://www.w3.org/2000/svg" width="140" height="128" style="shape-rendering:geometricPrecision;text-rendering:geometricPrecision;image-rendering:optimizeQuality;fill-rule:evenodd;clip-rule:evenodd"><path fill="#fefdfd" d="M87.5 13.5q2.55-.24 5 .5a61.6 61.6 0 0 0 16 10l6.5 6.5q.354 3.395 1.5 6.5 13.522 2.115 20.5 13.5 2.28 4.482.5 9a4.93 4.93 0 0 0-3 .5 24.4 24.4 0 0 1 4 10q-1 3-4 4 4.458 5.086 3 11.5a10.26 10.26 0 0 1-4 1.5q11.909 18.726-10 25-14.013 2.949-28 0-13.195-2.712-18-15 1.834-7.338 9-10 13.372-3.642 26 2 4.065 2.19 2 6A5189 5189 0 0 1 97 90.5q-25.744 5.25-1.5 15.5 11.959 2.121 23.5 1.5 25.084-8.21 2.5-21.5-27.852-8.84-55 2.5-2.605 9.855-12.5 12-9.636-1.63-7-11 3.215-8.73 12.5-9a31.1 31.1 0 0 0-1-11 219 219 0 0 1-20 5q.25 13.01-.5 26-2.928 8.185-11.5 9-10.875-3.831-5-14a70.2 70.2 0 0 1-16-7.5Q1.013 84.788 2 79.5q1.574-1.526 3.5-.5 10.725 11.829 27 10.5v-8q-16.865 2.666-29-9-4.48-4.77 1-8 10.64 13.231 28 12v-8Q15.817 70.12 3 58.5q-1.803-3.266-1.5-7 2.682-.428 5 1 3.016 4.766 8 7.5a49.2 49.2 0 0 0 18 2.5q-1.16-7.09 6-7.5l-19-1Q-.785 50.637 2 30.5 9.249 19.493 22.5 18q13.433-1.85 26 3 8.284 3.735 7.5 12.5a4.94 4.94 0 0 1-2.5 1q-3.158-2.643-5-6.5-16.025-7.75-33-2-14.08 7.561-3 19a32.5 32.5 0 0 0 7 3q10.5 1 21 0a1159 1159 0 0 1 46-11.5 147 147 0 0 1 1-23m5 9a140.5 140.5 0 0 1 16.5 10q1.197 2.638-.5 5-6.25-5.38-14-8.5-2.594-2.684-2-6.5m0 12a80 80 0 0 1 10 5.5q2.199 2.329 3 5.5a92 92 0 0 0-5 17h-8zm-8 8q2.804 3.203 2 8a97.4 97.4 0 0 0-21 4q.38-3.49-2-6a166 166 0 0 1 21-6m29 0q10.33 1.521 17.5 9 1.021 3.045 1 6-8.829-6.036-19.5-7.5a3.65 3.65 0 0 1-1-1.5q1.87-2.734 2-6m-55 13q1.95 3.785 0 8l-20 5v-8q10.456-1.331 20-5m50 0q10.857.702 20 6.5 3.85 4.055 3.5 9.5-2.597-3.175-6.5-4.5a126 126 0 0 0-18-4.5q-1.698-3.735 1-7m-27 1q2.682-.428 5 1-8.42 1.215-13 8.5a122 122 0 0 0-7.5 2.5 32.4 32.4 0 0 1-.5-8 140 140 0 0 0 16-4m1 8h4q0 7-7 7-.525-4.43 3-7m50 21q-9.8-6.685-21.5-9-12.25.024-24.5 0a66 66 0 0 0 6-7.5q17.707-2.113 34 5 5.59 4.431 6 11.5m-49-8q-8.862 1.962-18 4a13.1 13.1 0 0 1 1-7 95 95 0 0 1 6.5-2q3.78 5.514 10.5 5m-27 9h3q-.07 5.823-5.5 8-2.727-5.085 2.5-8m-27 9h3q-.003 5.773-5.5 8-1.305-.912-1.5-2.5 1.195-3.428 4-5.5" style="opacity:.771"/></svg>