<?xml version="1.0" encoding="UTF-8"?>
<svg version="1.1" xmlns="http://www.w3.org/2000/svg" width="512" height="341">
<path d="M0 0 C168.96 0 337.92 0 512 0 C512 112.53 512 225.06 512 341 C343.04 341 174.08 341 0 341 C0 228.47 0 115.94 0 0 Z " fill="#E32D3C" transform="translate(0,0)"/>
<path d="M0 0 C76.56 0 153.12 0 232 0 C232 48.84 232 97.68 232 148 C155.44 148 78.88 148 0 148 C0 99.16 0 50.32 0 0 Z " fill="#FDFBFB" transform="translate(280,193)"/>
<path d="M0 0 C76.56 0 153.12 0 232 0 C232 48.84 232 97.68 232 148 C155.44 148 78.88 148 0 148 C0 99.16 0 50.32 0 0 Z " fill="#FDFBFB" transform="translate(0,193)"/>
<path d="M0 0 C76.56 0 153.12 0 232 0 C232 48.84 232 97.68 232 148 C155.44 148 78.88 148 0 148 C0 99.16 0 50.32 0 0 Z " fill="#FDFBFB" transform="translate(280,0)"/>
<path d="M0 0 C76.56 0 153.12 0 232 0 C232 48.84 232 97.68 232 148 C155.44 148 78.88 148 0 148 C0 99.16 0 50.32 0 0 Z " fill="#FDFBFB" transform="translate(0,0)"/>
<path d="M0 0 C10.56 0 21.12 0 32 0 C26.66666667 2.66666667 21.33333333 5.33333333 16 8 C16 8.66 16 9.32 16 10 C18.07986668 11.66270259 18.07986668 11.66270259 20.81640625 13.39453125 C21.8741626 14.09151123 22.93191895 14.78849121 24.02172852 15.5065918 C24.59625763 15.88069183 25.17078674 16.25479187 25.76272583 16.64022827 C28.22584325 18.24456451 30.67861177 19.86441077 33.13194275 21.48365784 C34.43344264 22.34263892 35.73542482 23.20088965 37.03785706 24.05845642 C44.08896856 28.7050255 51.07742554 33.44248937 58.0625 38.1875 C59.35939252 39.06755831 60.65634953 39.94752159 61.95336914 40.82739258 C63.93785003 42.17364413 65.92229086 43.5199542 67.9065094 44.86659241 C74.88327027 49.60113858 81.86750636 54.3246144 88.85211182 59.0475769 C103.65702115 69.05880208 118.45547716 79.07952915 133.25090027 89.10476685 C138.43762077 92.61917673 143.62493354 96.13271155 148.81256104 99.64578247 C152.04838968 101.83717802 155.28387562 104.02907583 158.51855469 106.22216797 C164.38576535 110.19972621 170.25496052 114.17418386 176.13383484 118.13449097 C178.77335317 119.91311507 181.41115709 121.6942714 184.04873657 123.47576904 C185.30130095 124.32079615 186.55469097 125.1646008 187.80892944 126.00714111 C189.52964792 127.16316964 191.24754462 128.32327554 192.96484375 129.484375 C193.9405835 130.14147461 194.91632324 130.79857422 195.92163086 131.47558594 C196.60749268 131.97864258 197.29335449 132.48169922 198 133 C198 133.33 198 133.66 198 134 C184.21971593 136.0035643 174.38545449 135.05263687 163 126.625 C160.13504701 124.44596451 157.30503309 122.23423962 154.50048828 119.97802734 C151.26912888 117.4218397 147.9011965 115.1620563 144.4375 112.9375 C143.25904245 112.16093557 142.08199209 111.38223212 140.90625 110.6015625 C140.29265625 110.19454102 139.6790625 109.78751953 139.046875 109.36816406 C131.94214265 104.61924706 124.90533639 99.76803157 117.84960938 94.94677734 C113.29740453 91.83683205 108.74256055 88.73076054 104.1875 85.625 C103.28612305 85.01035889 102.38474609 84.39571777 101.45605469 83.76245117 C90.31117526 76.16447385 79.15526886 68.5827111 68 61 C55.74698248 52.67110241 43.49440618 44.34155445 31.25 36 C29.89165039 35.07525879 29.89165039 35.07525879 28.50585938 34.13183594 C24.60638005 31.47388839 20.71320486 28.80867789 16.84765625 26.1015625 C16.23954102 25.67617188 15.63142578 25.25078125 15.00488281 24.8125 C13.45508418 23.72504753 11.90899084 22.63231935 10.36328125 21.5390625 C8.00427248 19.86102138 8.00427248 19.86102138 5 19 C4.51348139 21.80709964 4.51348139 21.80709964 5 25 C6.94530055 26.88183235 8.56348476 28.13804239 10.8125 29.5625 C11.4327002 29.97959229 12.05290039 30.39668457 12.69189453 30.82641602 C14.05465417 31.74165995 15.42313333 32.6484293 16.79638672 33.54785156 C19.88376213 35.58238612 22.92345953 37.68399859 25.96826172 39.78149414 C28.39475696 41.45109418 30.82725611 43.11157405 33.26171875 44.76953125 C37.57798753 47.71025699 41.8850488 50.66410471 46.1875 53.625 C47.50260079 54.52995282 48.81770493 55.43490077 50.1328125 56.33984375 C50.77508789 56.78183105 51.41736328 57.22381836 52.07910156 57.67919922 C53.96575832 58.97645558 55.85374916 60.27174505 57.7421875 61.56640625 C65.55940536 66.92833864 73.34865601 72.32894418 81.125 77.75 C89.62094557 83.67133176 98.15728627 89.52940681 106.72241211 95.35009766 C114.37430034 100.55701597 121.97575021 105.83425411 129.5637207 111.13378906 C134.20118653 114.36961938 138.84912501 117.58685838 143.53125 120.7578125 C144.40177002 121.34804199 145.27229004 121.93827148 146.16918945 122.54638672 C147.79793829 123.64821991 149.42913092 124.74645296 151.06323242 125.84033203 C151.78873291 126.33130371 152.5142334 126.82227539 153.26171875 127.328125 C154.20470825 127.96089355 154.20470825 127.96089355 155.16674805 128.60644531 C157 130 157 130 161 134 C107.87 134 54.74 134 0 134 C0 89.78 0 45.56 0 0 Z " fill="#2D4997" transform="translate(0,0)"/>
<path d="M0 0 C14.50427682 -2.06689125 23.8837848 -0.24798499 35.66772461 8.53491211 C37.51717201 9.95417159 39.35769053 11.38513632 41.18945312 12.82714844 C45.88456448 16.45696872 50.79480443 19.7693559 55.6875 23.125 C57.61944922 24.46997678 59.55045301 25.81631269 61.48046875 27.1640625 C66.46840898 30.6368651 71.47861349 34.07579534 76.5 37.5 C83.4664689 42.25060329 90.39642939 47.05134165 97.3125 51.875 C104.84525667 57.12784232 112.40451468 62.33828414 120 67.5 C128.57120817 73.32479451 137.08985022 79.22138201 145.59008789 85.14916992 C153.94207041 90.96998966 162.33924963 96.72265067 170.74804688 102.4609375 C174.56641097 105.07053933 178.37710592 107.6912801 182.1875 110.3125 C183.2228186 111.02466675 183.2228186 111.02466675 184.27905273 111.7512207 C185.85282663 112.83396575 187.42643416 113.91695261 189 115 C189.99 113.68 190.98 112.36 192 111 C189.2831829 108.15169891 186.52315005 105.82924758 183.28125 103.6015625 C182.35957031 102.96476562 181.43789063 102.32796875 180.48828125 101.671875 C179.50214844 100.99640625 178.51601563 100.3209375 177.5 99.625 C175.40604377 98.17998629 173.31229733 96.73466855 171.21875 95.2890625 C170.16945313 94.5662207 169.12015625 93.84337891 168.0390625 93.09863281 C163.67778909 90.08694369 159.33809198 87.04493915 155 84 C147.8441822 78.98433364 140.67546007 73.98752115 133.5 69 C122.16874721 61.12322456 110.86247 53.21118242 99.56152344 45.29101562 C89.88585824 38.51070529 80.20089027 31.74418146 70.5 25 C68.57809492 23.66280364 66.6562198 22.32556424 64.734375 20.98828125 C60.89306918 18.31547081 57.04878458 15.64700999 53.203125 12.98046875 C51.3853143 11.71629302 49.56760162 10.45197633 47.75 9.1875 C46.91017578 8.60677734 46.07035156 8.02605469 45.20507812 7.42773438 C44.43099609 6.88826172 43.65691406 6.34878906 42.859375 5.79296875 C42.18358398 5.3239917 41.50779297 4.85501465 40.81152344 4.37182617 C39 3 39 3 36 0 C88.8 0 141.6 0 196 0 C196 44.22 196 88.44 196 134 C185.44 134 174.88 134 164 134 C169.33333333 131.33333333 174.66666667 128.66666667 180 126 C177.14983746 122.97003749 174.23923478 120.69380685 170.75 118.4375 C165.87593191 115.24332917 161.04682252 111.99655986 156.25 108.6875 C155.57549805 108.2227124 154.90099609 107.7579248 154.20605469 107.27905273 C152.8253431 106.32740625 151.44481017 105.37550052 150.06445312 104.42333984 C146.71206213 102.11202959 143.35587922 99.80624118 140 97.5 C138.66664766 96.58336098 137.33331435 95.66669428 136 94.75 C135.01 94.069375 135.01 94.069375 134 93.375 C80 56.25 80 56.25 78.00073242 54.87548828 C76.66497667 53.95716639 75.32920188 53.0388722 73.9934082 52.12060547 C70.69698255 49.85448843 67.40086973 47.58791941 64.10546875 45.3203125 C56.91048865 40.37016619 49.70895763 35.42977219 42.5 30.5 C35.95392438 26.02353291 29.40982231 21.54426491 22.88061523 17.04321289 C19.42476769 14.66154519 15.96059072 12.29326953 12.484375 9.94140625 C11.74469482 9.43883301 11.00501465 8.93625977 10.24291992 8.41845703 C8.81846164 7.45095463 7.39163409 6.48692889 5.9621582 5.52685547 C1.11245025 2.22490051 1.11245025 2.22490051 0 0 Z " fill="#2D4997" transform="translate(316,207)"/>
<path d="M0 0 C10.56 0 21.12 0 32 0 C32 44.22 32 88.44 32 134 C-21.46 134 -74.92 134 -130 134 C-127.17104422 131.17104422 -125.11785195 129.25147329 -121.89453125 127.14453125 C-121.08943115 126.61384033 -120.28433105 126.08314941 -119.45483398 125.53637695 C-118.58286377 124.96749756 -117.71089355 124.39861816 -116.8125 123.8125 C-114.90293404 122.55316198 -112.99411033 121.29269792 -111.0859375 120.03125 C-109.58691895 119.04125 -109.58691895 119.04125 -108.05761719 118.03125 C-102.99037906 114.66495958 -97.96388104 111.23937844 -92.9375 107.8125 C-90.82162635 106.37107648 -88.70574071 104.92967056 -86.58984375 103.48828125 C-85.51460449 102.75561035 -84.43936523 102.02293945 -83.33154297 101.26806641 C-78.15036759 97.7393475 -72.96175334 94.2215851 -67.77371216 90.70297241 C-58.34493444 84.30815833 -48.91987939 77.90791796 -39.5 71.5 C-33.03336773 67.10104251 -26.56558122 62.70380492 -20.09375 58.3125 C-19.51052475 57.91674774 -18.9272995 57.52099548 -18.32640076 57.11325073 C-15.38356572 55.11656291 -12.44028658 53.12053377 -9.49633789 51.12548828 C-4.18007979 47.52182625 1.13266618 43.91338389 6.43057251 40.28277588 C8.75367725 38.6907867 11.0783803 37.1011391 13.40307617 35.51147461 C15.02763324 34.39887888 16.64958893 33.28248778 18.27148438 32.16601562 C19.24537109 31.50021484 20.21925781 30.83441406 21.22265625 30.1484375 C22.07609619 29.56239746 22.92953613 28.97635742 23.80883789 28.37255859 C26 27 26 27 29 26 C28.2368139 24.39218107 27.46412942 22.78886862 26.6875 21.1875 C26.04361328 19.84751953 26.04361328 19.84751953 25.38671875 18.48046875 C24.11021226 16.19714024 22.8456512 14.80235146 21 13 C21 12.34 21 11.68 21 11 C15.58018583 11.42575607 11.80981912 14.53259164 7.4765625 17.52734375 C6.63493561 18.09911346 5.79330872 18.67088318 4.92617798 19.25997925 C2.15409839 21.14523117 -0.61030264 23.04144266 -3.375 24.9375 C-6.28989274 26.92352009 -9.20676981 28.90660169 -12.1237793 30.88951111 C-14.12000835 32.24671814 -16.11560738 33.60485229 -18.1105957 34.96388245 C-27.12354326 41.09993751 -36.19480656 47.14576978 -45.28033447 53.1736145 C-56.97602388 60.93494718 -68.61678736 68.75119998 -80.09814453 76.82763672 C-90.81831144 84.33349415 -101.73053678 91.55753711 -112.65917969 98.75537109 C-120.39141269 103.85838428 -128.07275843 108.9985814 -135.57980347 114.42951965 C-138.84081936 116.78764145 -142.12334093 119.11492293 -145.40643311 121.44216919 C-146.94355481 122.54592081 -148.46955247 123.66536756 -149.98272705 124.80172729 C-161.39807145 133.36652352 -169.76472675 135.53318005 -184 134 C-184 133.34 -184 132.68 -184 132 C-181.65360021 130.41541832 -179.30741291 128.94242534 -176.875 127.5 C-170.8599946 123.92221236 -165.14910781 120.00422225 -159.47581482 115.91188049 C-153.82232044 111.84456455 -148.05271954 107.96924689 -142.24215698 104.13027954 C-138.99058969 101.98117144 -135.74542546 99.82242997 -132.5 97.6640625 C-131.81340805 97.20757828 -131.1268161 96.75109406 -130.41941833 96.28077698 C-122.23162119 90.83161701 -114.08387321 85.32331333 -105.9375 79.8125 C-104.77583313 79.02681137 -104.77583313 79.02681137 -103.59069824 78.22525024 C-99.63495324 75.54965696 -95.67964866 72.87341368 -91.72460938 70.19677734 C-84.80912072 65.51698822 -77.89010052 60.84242639 -70.97106934 56.1678772 C-68.691866 54.62794986 -66.41281262 53.08780081 -64.13378906 51.54760742 C-55.8730837 45.96531757 -47.60977346 40.38691223 -39.34375 34.8125 C-37.54727454 33.60075961 -35.7508064 32.38900838 -33.9543457 31.17724609 C-30.55236248 28.88252335 -27.1497749 26.58870077 -23.74682617 24.29541016 C-19.90931811 21.70828922 -16.07529001 19.11609066 -12.24407959 16.51965332 C-10.71514302 15.48428294 -9.18519366 14.45040696 -7.65435791 13.41784668 C-5.39805095 11.89496163 -3.14582829 10.36621577 -0.89453125 8.8359375 C-0.21162521 8.37659821 0.47128082 7.91725891 1.17488098 7.44400024 C4.62966827 5.23342037 4.62966827 5.23342037 7 2 C4.69 1.67 2.38 1.34 0 1 C0 0.67 0 0.34 0 0 Z " fill="#2D4997" transform="translate(480,0)"/>
<path d="M0 0 C53.46 0 106.92 0 162 0 C156.37400046 4.50079963 156.37400046 4.50079963 153.33984375 6.56640625 C152.64358887 7.04174805 151.94733398 7.51708984 151.22998047 8.00683594 C150.47346191 8.52020508 149.71694336 9.03357422 148.9375 9.5625 C148.12168457 10.1184082 147.30586914 10.67431641 146.46533203 11.24707031 C143.64529907 13.16729183 140.82286439 15.08394347 138 17 C136.9363623 17.7223584 135.87272461 18.4447168 134.77685547 19.18896484 C129.49710268 22.77445458 124.21607583 26.35806169 118.93388367 29.93995667 C111.78529047 34.78748329 104.64127424 39.64169509 97.5 44.5 C88.67082646 50.50614481 79.83693173 56.50528005 71 62.5 C57.99333236 71.32353685 44.99535027 80.1598025 32 89 C27.93414326 91.76576948 23.86819143 94.53139908 19.80209351 97.29681396 C18.16136078 98.41276898 16.52074257 99.52889235 14.88012695 100.64501953 C13.3964563 101.65411377 13.3964563 101.65411377 11.8828125 102.68359375 C10.57401123 103.57389282 10.57401123 103.57389282 9.23876953 104.48217773 C7.4977467 105.66254185 5.75015999 106.83322668 4 108 C4.30212821 112.83405138 6.7839716 115.614158 9.72265625 119.23046875 C11 121 11 121 11 123 C16.36679163 120.88436247 20.93629616 118.26979791 25.703125 115.0390625 C26.44156647 114.54532135 27.18000793 114.0515802 27.94082642 113.5428772 C30.38101118 111.9091639 32.81548997 110.26715512 35.25 108.625 C36.98031914 107.46405253 38.71095722 106.30358028 40.44189453 105.14355469 C45.96702061 101.4375644 51.48401102 97.71957107 57 94 C58.83494221 92.76331856 60.66990303 91.52666475 62.50488281 90.29003906 C69.77867052 85.38716338 77.05114796 80.48235513 84.32006836 75.57226562 C96.14593697 67.58574932 108.00326749 59.6483165 119.88571167 51.74627686 C126.93613428 47.05667358 133.97976896 42.36038513 140.96240234 37.57006836 C142.60465859 36.44537068 144.2508004 35.32632449 145.90087891 34.21313477 C151.42966025 30.47847817 156.88550801 26.66085639 162.31175232 22.7789917 C165.9860882 20.16508557 169.68710499 17.59050117 173.39212036 15.02032471 C175.23156712 13.73201514 177.06019523 12.42809526 178.87667847 11.10760498 C191.41520777 2.00921366 200.39685918 -2.09235816 216 0 C213.58161463 2.51313244 211.23705858 4.66977374 208.31640625 6.57421875 C207.20265625 7.30765503 207.20265625 7.30765503 206.06640625 8.0559082 C205.24011719 8.5943335 204.41382813 9.13275879 203.5625 9.6875 C201.65668264 10.94399474 199.75181077 12.20192422 197.84765625 13.4609375 C196.23334717 14.52779785 196.23334717 14.52779785 194.58642578 15.61621094 C187.52482661 20.2992623 180.51774793 25.06413915 173.5 29.8125 C171.89855382 30.89547811 170.29707233 31.97840399 168.69555664 33.0612793 C165.4244577 35.27316525 162.15356779 37.48535983 158.8828125 39.69775391 C151.85575606 44.45062158 144.82601682 49.19951798 137.79638672 53.94857788 C133.94747247 56.54887628 130.09874608 59.14945269 126.25 61.75 C124.70833423 62.79166799 123.16666756 63.83333465 121.625 64.875 C120.4803125 65.6484375 120.4803125 65.6484375 119.3125 66.4375 C112.37500001 71.12499999 112.37500001 71.12499999 110.06278992 72.68730164 C108.5201538 73.72962499 106.97752075 74.77195287 105.43489075 75.81428528 C101.5955817 78.40844174 97.75622053 81.00252099 93.91674805 83.59643555 C86.80259071 88.40281522 79.68891238 93.20989862 72.57705688 98.01968384 C69.28073833 100.24893331 65.98412887 102.47775242 62.6875 104.70654297 C61.14227146 105.75141482 59.59717951 106.79648871 58.05224609 107.84179688 C47.0660327 115.27501172 36.04465712 122.65390573 25 130 C28.08268982 132.14470719 28.08268982 132.14470719 32 134 C21.44 134 10.88 134 0 134 C0 89.78 0 45.56 0 0 Z " fill="#2D4997" transform="translate(0,207)"/>
<path d="M0 0 C4.39013443 1.75605377 7.13067507 3.37044675 10.875 6.125 C12.11348211 7.02625481 13.35315576 7.92587356 14.59375 8.82421875 C15.63015625 9.57517822 15.63015625 9.57517822 16.6875 10.34130859 C21.21552492 13.5891339 25.79800257 16.75925812 30.375 19.9375 C31.87522705 20.97994873 31.87522705 20.97994873 33.40576172 22.04345703 C39.54576644 26.30609695 45.69790374 30.55055497 51.86279297 34.77709961 C58.7691462 39.51697782 65.6382416 44.31029279 72.51171875 49.09765625 C77.99610417 52.91571585 83.48834376 56.72142379 89 60.5 C100.3823175 68.30565165 111.69348701 76.21419526 123.01855469 84.10253906 C137.11443482 93.92365908 137.11443482 93.92365908 151.25 103.6875 C151.86415771 104.10990967 152.47831543 104.53231934 153.11108398 104.9675293 C156.79969096 107.5004721 160.49874983 110.0175149 164.203125 112.52734375 C165.08323242 113.12522705 165.96333984 113.72311035 166.87011719 114.33911133 C168.5979545 115.51244311 170.32771824 116.68294399 172.05957031 117.8503418 C172.83397461 118.37668213 173.60837891 118.90302246 174.40625 119.4453125 C175.44749023 120.14938232 175.44749023 120.14938232 176.50976562 120.86767578 C177.00154297 121.24134277 177.49332031 121.61500977 178 122 C178 122.33 178 122.66 178 123 C119.26 123 60.52 123 0 123 C0 82.41 0 41.82 0 0 Z " fill="#2B4896" transform="translate(296,218)"/>
<path d="M0 0 C0 40.26 0 80.52 0 122 C-59.07 122 -118.14 122 -179 122 C-175.20847724 118.96678179 -171.38857603 116.06239787 -167.4375 113.25 C-166.50744141 112.58713989 -166.50744141 112.58713989 -165.55859375 111.91088867 C-160.95189524 108.64289392 -156.27950896 105.48778155 -151.56640625 102.375 C-146.8262738 99.23261789 -142.13482804 96.01833773 -137.4375 92.8125 C-136.48423828 92.16192627 -135.53097656 91.51135254 -134.54882812 90.84106445 C-127.75552297 86.20244636 -120.96644907 81.55764798 -114.17871094 76.91088867 C-103.5260046 69.61957001 -92.85592502 62.35370784 -82.18847656 55.08398438 C-72.62062129 48.56332283 -63.05428964 42.04052716 -53.5 35.5 C-51.15341314 33.89423276 -48.80672745 32.28861014 -46.45996094 30.68310547 C-44.76513951 29.52350851 -43.07048805 28.36366311 -41.37597656 27.20361328 C-31.01097123 20.11009775 -20.62575196 13.04790647 -10.1875 6.0625 C-9.2795166 5.452854 -8.3715332 4.84320801 -7.43603516 4.21508789 C-6.60507324 3.66071045 -5.77411133 3.10633301 -4.91796875 2.53515625 C-4.18344482 2.044104 -3.4489209 1.55305176 -2.69213867 1.04711914 C-1 0 -1 0 0 0 Z " fill="#2B4896" transform="translate(216,219)"/>
<path d="M0 0 C58.74 0 117.48 0 178 0 C178 40.26 178 80.52 178 122 C173.84277002 120.33710801 171.39331105 118.99205764 167.92578125 116.3671875 C162.14450953 112.07407767 156.20038478 108.08437292 150.1875 104.125 C142.89950494 99.29913521 135.6702819 94.42599459 128.59130859 89.29858398 C124.25675165 86.16276355 119.83073485 83.19025989 115.3671875 80.2421875 C111.19404087 77.47623509 107.06733176 74.6425391 102.9375 71.8125 C102.12490723 71.25570557 101.31231445 70.69891113 100.47509766 70.12524414 C98.80813408 68.98261757 97.14130566 67.83979377 95.47460938 66.69677734 C91.54717927 64.0038374 87.61750064 61.3141867 83.6875 58.625 C82.90987305 58.09285889 82.13224609 57.56071777 81.33105469 57.01245117 C69.65729047 49.02632953 57.96680976 41.06467477 46.27734375 33.1015625 C40.84974393 29.40370399 35.42397616 25.70317154 30 22 C29.24428711 21.48421387 28.48857422 20.96842773 27.70996094 20.43701172 C20.43640906 15.4687836 13.18882685 10.46525367 6 5.375 C5.39349609 4.94856201 4.78699219 4.52212402 4.16210938 4.08276367 C2.75605783 3.08088999 1.37497167 2.04411911 0 1 C0 0.67 0 0.34 0 0 Z " fill="#2B4896" transform="translate(38,0)"/>
<path d="M0 0 C58.74 0 117.48 0 178 0 C174.73594894 3.26405106 171.93379948 5.55104782 168.15234375 8.08984375 C167.5881926 8.4705452 167.02404144 8.85124664 166.4427948 9.2434845 C164.61037829 10.47886073 162.77394399 11.70812081 160.9375 12.9375 C159.6603073 13.79735086 158.38345436 14.65770659 157.10693359 15.51855469 C154.56792486 17.2305409 152.02777769 18.94081573 149.48681641 20.64990234 C145.01655327 23.65947512 140.56824816 26.70072155 136.125 29.75 C134.62379078 30.77878135 133.12248845 31.80742686 131.62109375 32.8359375 C130.50130127 33.60309082 130.50130127 33.60309082 129.35888672 34.38574219 C124.97219539 37.38768827 120.57972483 40.38115856 116.1875 43.375 C115.27009033 44.00035645 114.35268066 44.62571289 113.4074707 45.27001953 C109.66794001 47.81888156 105.92820359 50.36744167 102.18847656 52.91601562 C92.62062187 59.43667678 83.05414174 65.95925745 73.5 72.5 C62.0742251 80.32205813 50.63081399 88.11821568 39.18847656 95.91601562 C37.32090542 97.18879819 35.45339222 98.46166576 33.5859375 99.73461914 C31.75279853 100.98409054 29.91946853 102.23328173 28.0859375 103.48217773 C23.52696809 106.58888151 18.97362712 109.70337778 14.4296875 112.83203125 C13.54692139 113.43901855 12.66415527 114.04600586 11.75463867 114.67138672 C10.07636034 115.82599114 8.39938259 116.98248893 6.72387695 118.14111328 C5.98355225 118.65013184 5.24322754 119.15915039 4.48046875 119.68359375 C3.82973389 120.13275146 3.17899902 120.58190918 2.50854492 121.04467773 C1 122 1 122 0 122 C0 81.74 0 41.48 0 0 Z " fill="#2B4896" transform="translate(296,0)"/>
<path d="M0 0 C14.50427682 -2.06689125 23.8837848 -0.24798499 35.66772461 8.53491211 C37.51717201 9.95417159 39.35769053 11.38513632 41.18945312 12.82714844 C45.88456448 16.45696872 50.79480443 19.7693559 55.6875 23.125 C57.61944922 24.46997678 59.55045301 25.81631269 61.48046875 27.1640625 C66.46840898 30.6368651 71.47861349 34.07579534 76.5 37.5 C83.4664689 42.25060329 90.39642939 47.05134165 97.3125 51.875 C104.84525667 57.12784232 112.40451468 62.33828414 120 67.5 C128.57120817 73.32479451 137.08985022 79.22138201 145.59008789 85.14916992 C153.94207041 90.96998966 162.33924963 96.72265067 170.74804688 102.4609375 C174.56641097 105.07053933 178.37710592 107.6912801 182.1875 110.3125 C183.2228186 111.02466675 183.2228186 111.02466675 184.27905273 111.7512207 C185.85282663 112.83396575 187.42643416 113.91695261 189 115 C188.27238626 118.3452117 187.4558202 119.89242365 184.9375 122.25 C184.11572266 123.03117187 184.11572266 123.03117187 183.27734375 123.828125 C182.85582031 124.21484375 182.43429687 124.6015625 182 125 C178.36205406 123.67582799 175.41025383 122.06606326 172.25390625 119.83203125 C171.34519775 119.19354248 170.43648926 118.55505371 169.50024414 117.8972168 C168.53078857 117.20926025 167.56133301 116.52130371 166.5625 115.8125 C164.4902254 114.35585698 162.41729211 112.90015065 160.34375 111.4453125 C159.28929687 110.70442383 158.23484375 109.96353516 157.1484375 109.20019531 C152.31411333 105.82186642 147.44076113 102.50193515 142.5625 99.1875 C140.73822517 97.94669703 138.91400511 96.70581353 137.08984375 95.46484375 C135.79602783 94.58481689 135.79602783 94.58481689 134.47607422 93.68701172 C128.93857064 89.91417108 123.4216425 86.11135915 117.90332031 82.31054688 C114.60353044 80.03844939 111.30163099 77.76942087 108 75.5 C106.66665718 74.58334714 105.33332383 73.66668049 104 72.75 C103.01 72.069375 103.01 72.069375 102 71.375 C80 56.25 80 56.25 78.00073242 54.87548828 C76.66497667 53.95716639 75.32920188 53.0388722 73.9934082 52.12060547 C70.69698255 49.85448843 67.40086973 47.58791941 64.10546875 45.3203125 C56.91048865 40.37016619 49.70895763 35.42977219 42.5 30.5 C35.95392438 26.02353291 29.40982231 21.54426491 22.88061523 17.04321289 C19.42476769 14.66154519 15.96059072 12.29326953 12.484375 9.94140625 C11.74469482 9.43883301 11.00501465 8.93625977 10.24291992 8.41845703 C8.81846164 7.45095463 7.39163409 6.48692889 5.9621582 5.52685547 C1.11245025 2.22490051 1.11245025 2.22490051 0 0 Z " fill="#E33140" transform="translate(316,207)"/>
<path d="M0 0 C18.21928138 11.39708351 35.89254601 23.65222977 53.675354 35.71252441 C60.73339969 40.49864936 67.79701598 45.2765248 74.86117554 50.05361938 C89.66279942 60.0632215 104.45848274 70.08156571 119.25090027 80.10476685 C124.43762077 83.61917673 129.62493354 87.13271155 134.81256104 90.64578247 C138.04838968 92.83717802 141.28387562 95.02907583 144.51855469 97.22216797 C150.38576535 101.19972621 156.25496052 105.17418386 162.13383484 109.13449097 C164.77335317 110.91311507 167.41115709 112.6942714 170.04873657 114.47576904 C171.30130095 115.32079615 172.55469097 116.1646008 173.80892944 117.00714111 C175.52964792 118.16316964 177.24754462 119.32327554 178.96484375 120.484375 C179.9405835 121.14147461 180.91632324 121.79857422 181.92163086 122.47558594 C182.60749268 122.97864258 183.29335449 123.48169922 184 124 C184 124.33 184 124.66 184 125 C170.21971593 127.0035643 160.38545449 126.05263687 149 117.625 C146.13504701 115.44596451 143.30503309 113.23423962 140.50048828 110.97802734 C137.26912888 108.4218397 133.9011965 106.1620563 130.4375 103.9375 C129.25904245 103.16093557 128.08199209 102.38223212 126.90625 101.6015625 C126.29265625 101.19454102 125.6790625 100.78751953 125.046875 100.36816406 C117.94214265 95.61924706 110.90533639 90.76803157 103.84960938 85.94677734 C99.29740453 82.83683205 94.74256055 79.73076054 90.1875 76.625 C89.28612305 76.01035889 88.38474609 75.39571777 87.45605469 74.76245117 C76.31117526 67.16447385 65.15526886 59.5827111 54 52 C49.77071457 49.12517466 45.54154737 46.25017554 41.3125 43.375 C40.2810083 42.67383057 39.2495166 41.97266113 38.18676758 41.25024414 C33.14350997 37.82114703 28.10251014 34.38881502 23.06640625 30.94921875 C12.75123996 23.90435258 2.41588895 16.89525359 -8 10 C-5.74289154 6.06164359 -3.30602451 3.12732048 0 0 Z " fill="#E33140" transform="translate(14,9)"/>
<path d="M0 0 C4.99275057 1.27721526 7.57611908 3.17330957 11 7 C3.4391137 13.25044142 -4.71350073 18.58137378 -12.88665771 23.98083496 C-17.23170319 26.85181131 -21.56863545 29.73500152 -25.90625 32.6171875 C-26.81269257 33.2191394 -27.71913513 33.82109131 -28.65304565 34.44128418 C-38.76146836 41.15983564 -48.81875236 47.95371684 -58.875 54.75 C-71.8264935 63.50036285 -84.79759765 72.21921341 -97.8125 80.875 C-109.54731089 88.67967547 -109.54731089 88.67967547 -121.21630859 96.58227539 C-122.89136737 97.72615105 -124.57003411 98.86476297 -126.25244141 99.99780273 C-131.41547116 103.48829497 -136.48892817 107.07093902 -141.52127075 110.74671936 C-144.74578744 113.08932207 -147.99659658 115.3938697 -151.25085449 117.69491577 C-152.8503291 118.83879132 -154.43867746 119.99842002 -156.01428223 121.17495728 C-167.78956355 129.95250734 -176.31343526 132.69966847 -191 131 C-191 130.34 -191 129.68 -191 129 C-188.65360021 127.41541832 -186.30741291 125.94242534 -183.875 124.5 C-177.8599946 120.92221236 -172.14910781 117.00422225 -166.47581482 112.91188049 C-160.82232044 108.84456455 -155.05271954 104.96924689 -149.24215698 101.13027954 C-145.99058969 98.98117144 -142.74542546 96.82242997 -139.5 94.6640625 C-138.81340805 94.20757828 -138.1268161 93.75109406 -137.41941833 93.28077698 C-129.23162119 87.83161701 -121.08387321 82.32331333 -112.9375 76.8125 C-111.77583313 76.02681137 -111.77583313 76.02681137 -110.59069824 75.22525024 C-106.63495324 72.54965696 -102.67964866 69.87341368 -98.72460938 67.19677734 C-91.80912072 62.51698822 -84.89010052 57.84242639 -77.97106934 53.1678772 C-75.691866 51.62794986 -73.41281262 50.08780081 -71.13378906 48.54760742 C-62.8730837 42.96531757 -54.60977346 37.38691223 -46.34375 31.8125 C-44.54727454 30.60075961 -42.7508064 29.38900838 -40.9543457 28.17724609 C-37.55236248 25.88252335 -34.1497749 23.58870077 -30.74682617 21.29541016 C-23.1116492 16.14724739 -15.48802555 10.98294085 -7.89453125 5.7734375 C-7.21162521 5.3057193 -6.52871918 4.8380011 -5.82511902 4.35610962 C-2.77320192 2.35189052 -2.77320192 2.35189052 0 0 Z " fill="#E33240" transform="translate(487,3)"/>
<path d="M0 0 C-2.41838537 2.51313244 -4.76294142 4.66977374 -7.68359375 6.57421875 C-8.79734375 7.30765503 -8.79734375 7.30765503 -9.93359375 8.0559082 C-10.75988281 8.5943335 -11.58617187 9.13275879 -12.4375 9.6875 C-14.34331736 10.94399474 -16.24818923 12.20192422 -18.15234375 13.4609375 C-19.76665283 14.52779785 -19.76665283 14.52779785 -21.41357422 15.61621094 C-28.47517339 20.2992623 -35.48225207 25.06413915 -42.5 29.8125 C-44.10144618 30.89547811 -45.70292767 31.97840399 -47.30444336 33.0612793 C-50.5755423 35.27316525 -53.84643221 37.48535983 -57.1171875 39.69775391 C-64.14424394 44.45062158 -71.17398318 49.19951798 -78.20361328 53.94857788 C-82.05252753 56.54887628 -85.90125392 59.14945269 -89.75 61.75 C-91.29166577 62.79166799 -92.83333244 63.83333465 -94.375 64.875 C-95.5196875 65.6484375 -95.5196875 65.6484375 -96.6875 66.4375 C-100.15625 68.78125 -100.15625 68.78125 -103.625 71.125 C-104.38803436 71.64056458 -105.15106873 72.15612915 -105.93722534 72.68731689 C-107.47980448 73.72959844 -109.02238667 74.77187546 -110.56497192 75.81414795 C-114.40520291 78.40886987 -118.24538164 81.00366906 -122.08544922 83.59863281 C-129.18901484 88.39882178 -136.29306599 93.19828692 -143.39891052 97.99510193 C-167.74848854 114.42544427 -167.74848854 114.42544427 -192 131 C-200.6309795 127.14578588 -200.6309795 127.14578588 -203 123 C-202.16984375 122.49855469 -201.3396875 121.99710937 -200.484375 121.48046875 C-191.72070602 116.12359785 -183.17426763 110.47150351 -174.6875 104.6875 C-173.82691483 104.10101685 -173.82691483 104.10101685 -172.94894409 103.50268555 C-170.44209657 101.79390867 -167.93538771 100.08492862 -165.4289093 98.37561035 C-156.24402146 92.11583512 -147.02767214 85.90256459 -137.8125 79.6875 C-136.89235107 79.06674591 -135.97220215 78.44599182 -135.02416992 77.806427 C-122.08333818 69.07782523 -109.11473423 60.39226476 -96.11730957 51.74819946 C-89.06587629 47.05795731 -82.02121716 42.36106164 -75.03759766 37.57006836 C-73.39534141 36.44537068 -71.7491996 35.32632449 -70.09912109 34.21313477 C-64.57033975 30.47847817 -59.11449199 26.66085639 -53.68824768 22.7789917 C-50.0139118 20.16508557 -46.31289501 17.59050117 -42.60787964 15.02032471 C-40.76843288 13.73201514 -38.93980477 12.42809526 -37.12332153 11.10760498 C-24.58479223 2.00921366 -15.60314082 -2.09235816 0 0 Z " fill="#E33241" transform="translate(216,207)"/>
<path d="M0 0 C0.33 0 0.66 0 1 0 C1 10.56 1 21.12 1 32 C-9.56 32 -20.12 32 -31 32 C-28.77364249 30.88682125 -26.5367409 29.7921952 -24.265625 28.7734375 C-12.18684527 23.17213809 -6.08327358 16.31242736 -1 4 C-0.62967296 2.67646429 -0.27877263 1.34579891 0 0 Z " fill="#000000" transform="translate(511,309)"/>
<path d="M0 0 C1.14819861 2.29639722 2.28779707 4.59723905 3.40234375 6.91015625 C3.90894531 7.95042969 4.41554688 8.99070312 4.9375 10.0625 C5.69353516 11.62677734 5.69353516 11.62677734 6.46484375 13.22265625 C7.81329693 15.66222423 9.02524768 17.10777465 11 19 C11 19.66 11 20.32 11 21 C11.56074219 21.268125 12.12148437 21.53625 12.69921875 21.8125 C15.16348523 23.08437947 17.46642405 24.52215688 19.8125 26 C23.85945934 28.45815308 27.3870009 29.99717411 32 31 C32 31.33 32 31.66 32 32 C21.44 32 10.88 32 0 32 C0 21.44 0 10.88 0 0 Z " fill="#000000" transform="translate(0,309)"/>
<path d="M0 0 C10.56 0 21.12 0 32 0 C32 10.56 32 21.12 32 32 C30.85180139 29.70360278 29.71220293 27.40276095 28.59765625 25.08984375 C28.09105469 24.04957031 27.58445312 23.00929688 27.0625 21.9375 C26.55847656 20.89464844 26.05445313 19.85179687 25.53515625 18.77734375 C24.18670307 16.33777577 22.97475232 14.89222535 21 13 C21 12.34 21 11.68 21 11 C20.43925781 10.731875 19.87851562 10.46375 19.30078125 10.1875 C16.83651477 8.91562053 14.53357595 7.47784312 12.1875 6 C8.14054066 3.54184692 4.6129991 2.00282589 0 1 C0 0.67 0 0.34 0 0 Z " fill="#000000" transform="translate(480,0)"/>
<path d="M0 0 C10.56 0 21.12 0 32 0 C29.70360278 1.14819861 27.40276095 2.28779707 25.08984375 3.40234375 C24.04957031 3.90894531 23.00929688 4.41554688 21.9375 4.9375 C20.37322266 5.69353516 20.37322266 5.69353516 18.77734375 6.46484375 C16.33777577 7.81329693 14.89222535 9.02524768 13 11 C12.34 11 11.68 11 11 11 C10.731875 11.56074219 10.46375 12.12148437 10.1875 12.69921875 C8.91562053 15.16348523 7.47784312 17.46642405 6 19.8125 C3.54184692 23.85945934 2.00282589 27.3870009 1 32 C0.67 32 0.34 32 0 32 C0 21.44 0 10.88 0 0 Z " fill="#000000" transform="translate(0,0)"/>
</svg>
